<svg width="100" height="100" viewBox="0 0 100 100" fill="none" xmlns="http://www.w3.org/2000/svg">
<g clip-path="url(#clip0)">
<path d="M50 100C77.5686 100 100 77.5706 100 50C100 45.2413 99.3357 40.5518 98.0204 36.0606C97.3724 33.8521 95.0663 32.5836 92.8518 33.2316C90.6413 33.8776 89.3768 36.1918 90.0228 38.4003C91.1123 42.1315 91.6667 46.0358 91.6667 50C91.6667 72.9746 72.9746 91.6667 50 91.6667C27.0253 91.6667 8.33333 72.9746 8.33333 50C8.33333 27.0253 27.0253 8.33333 50 8.33333C58.3496 8.33333 66.3829 10.7747 73.231 15.392C75.1373 16.6789 77.7293 16.1733 79.0141 14.267C80.2999 12.3586 79.7984 9.76868 77.89 8.48287C69.6604 2.93376 60.0169 0 50 0C22.4314 0 0 22.4294 0 50C0 77.5706 22.4314 100 50 100Z" fill="#1B5060"/>
<path d="M92.8874 9.55405L50.0001 52.4394L36.2793 38.7207C34.6517 37.0941 32.015 37.0941 30.3874 38.7207C28.7608 40.3483 28.7608 42.985 30.3874 44.6126L47.0541 61.2793C47.8689 62.0941 48.933 62.5 50.0001 62.5C51.0672 62.5 52.1312 62.0941 52.946 61.2793L98.7794 15.446C100.406 13.8184 100.406 11.1817 98.7794 9.55405C97.1517 7.92746 94.515 7.92746 92.8874 9.55405Z" fill="#1B5060"/>
</g>
<defs>
<clipPath id="clip0">
<rect width="100" height="100" fill="white"/>
</clipPath>
</defs>
</svg>
