<svg width="21" height="83" viewBox="0 0 21 83" fill="none" xmlns="http://www.w3.org/2000/svg">
<path d="M10.5 66.0543C13.6774 66.0543 16.3223 63.6199 16.5899 60.4535L20.7209 11.1154C20.9614 8.25391 19.9912 5.42516 18.0489 3.31242C16.109 1.20239 13.3694 0 10.5 0C7.63052 0 4.89097 1.20239 2.95087 3.31242C1.00823 5.42516 0.0385176 8.25391 0.278995 11.1154L4.41002 60.4535C4.67763 63.6199 7.32254 66.0543 10.5 66.0543Z" fill="#E02C26"/>
<path d="M10.4999 69.6855C6.82255 69.6855 3.84253 72.6654 3.84253 76.3429C3.84253 80.0201 6.82255 83 10.4999 83C14.1773 83 17.1573 80.0201 17.1573 76.3429C17.1573 72.6654 14.1773 69.6855 10.4999 69.6855Z" fill="#E02C26"/>
</svg>
