<svg width="26" height="26" viewBox="0 0 26 26" fill="none" xmlns="http://www.w3.org/2000/svg">
<g clip-path="url(#clip0)">
<path d="M12.8148 12.5243C14.5355 12.5243 16.0254 11.9072 17.2427 10.6896C18.4601 9.47225 19.0772 7.98274 19.0772 6.26194C19.0772 4.54173 18.4601 3.05202 17.2425 1.83427C16.025 0.617109 14.5353 0 12.8148 0C11.094 0 9.60452 0.617109 8.38716 1.83447C7.1698 3.05182 6.55249 4.54153 6.55249 6.26194C6.55249 7.98274 7.1698 9.47245 8.38736 10.6898C9.60492 11.907 11.0946 12.5243 12.8148 12.5243Z" fill="#1B5060"/>
<path d="M23.4965 20.4337C23.4614 19.9271 23.3904 19.3744 23.2859 18.7908C23.1803 18.2029 23.0445 17.6471 22.8818 17.1391C22.7138 16.614 22.4853 16.0955 22.2028 15.5986C21.9096 15.0828 21.5653 14.6337 21.1788 14.2642C20.7748 13.8776 20.2801 13.5667 19.708 13.34C19.1379 13.1145 18.5061 13.0002 17.8303 13.0002C17.5648 13.0002 17.3082 13.1091 16.8125 13.4318C16.5074 13.6308 16.1505 13.8609 15.7522 14.1154C15.4116 14.3324 14.9502 14.5357 14.3803 14.7198C13.8243 14.8997 13.2597 14.991 12.7025 14.991C12.1453 14.991 11.581 14.8997 11.0244 14.7198C10.4551 14.5359 9.99368 14.3326 9.65349 14.1156C9.25894 13.8635 8.90189 13.6334 8.59224 13.4316C8.09712 13.1089 7.84024 13 7.57483 13C6.8988 13 6.26721 13.1145 5.69731 13.3402C5.12563 13.5665 4.63071 13.8774 4.22624 14.2644C3.84003 14.6341 3.49547 15.083 3.20268 15.5986C2.92041 16.0955 2.69189 16.6138 2.52368 17.1393C2.36122 17.6473 2.22534 18.2029 2.11981 18.7908C2.01527 19.3736 1.94426 19.9265 1.90915 20.4343C1.87463 20.9318 1.85718 21.4481 1.85718 21.9696C1.85718 23.3268 2.28862 24.4255 3.1394 25.2359C3.97968 26.0355 5.09151 26.4411 6.44356 26.4411H18.9627C20.3148 26.4411 21.4262 26.0357 22.2667 25.2359C23.1177 24.4261 23.5491 23.3272 23.5491 21.9694C23.5489 21.4455 23.5312 20.9288 23.4965 20.4337Z" fill="#1B5060"/>
</g>
<defs>
<clipPath id="clip0">
<rect width="26" height="26" fill="white"/>
</clipPath>
</defs>
</svg>
