<svg width="27" height="35" viewBox="0 0 27 35" fill="none" xmlns="http://www.w3.org/2000/svg">
<path d="M26.6364 11.2373H10.4485L17.6977 3.98812C18.0981 3.58768 18.0981 2.93843 17.6977 2.53792L15.8608 0.701025C14.9264 -0.23335 13.4115 -0.23335 12.477 0.701025L10.5883 2.5898L9.62148 1.62296C8.55538 0.556792 6.82054 0.55686 5.75437 1.62296L1.98392 5.39341C0.917754 6.45958 0.917754 8.19441 1.98392 9.26058L2.9507 10.2274L1.06199 12.1161C0.127612 13.0505 0.127612 14.5654 1.06199 15.4999L2.89888 17.3368C3.29925 17.7372 3.94858 17.7373 4.34901 17.3368L6.94803 14.7378V30.5567C6.94803 33.0108 8.9375 35.0003 11.3916 35.0003H22.1929C24.647 35.0003 26.6364 33.0108 26.6364 30.5567V11.2373ZM4.4009 8.77716L3.43412 7.81038C3.1676 7.54386 3.1676 7.11013 3.43412 6.84354L7.20457 3.07309C7.47116 2.8065 7.90489 2.80656 8.17135 3.07309L9.13812 4.03993L4.4009 8.77716ZM13.2554 29.2578C13.2554 29.8241 12.7963 30.2832 12.23 30.2832C11.6637 30.2832 11.2046 29.8241 11.2046 29.2578V16.9798C11.2046 16.4134 11.6637 15.9543 12.23 15.9543C12.7963 15.9543 13.2554 16.4134 13.2554 16.9798V29.2578ZM17.8176 29.2578C17.8176 29.8241 17.3586 30.2832 16.7922 30.2832C16.2259 30.2832 15.7668 29.8241 15.7668 29.2578V16.9798C15.7668 16.4134 16.2259 15.9543 16.7922 15.9543C17.3586 15.9543 17.8176 16.4134 17.8176 16.9798V29.2578ZM22.3799 29.2578C22.3799 29.8241 21.9208 30.2832 21.3545 30.2832C20.7881 30.2832 20.329 29.8241 20.329 29.2578V16.9798C20.329 16.4134 20.7881 15.9543 21.3545 15.9543C21.9208 15.9543 22.3799 16.4134 22.3799 16.9798V29.2578Z" fill="#E02C26"/>
<path d="M17.9349 7.76205C17.3094 7.98011 16.8706 8.53866 16.7981 9.18675H26.6369V7.48247C26.6369 6.31226 25.4854 5.48869 24.3796 5.86363L17.9562 7.75522C17.9493 7.7572 17.9418 7.75993 17.9349 7.76205Z" fill="#E02C26"/>
</svg>
