<svg width="18" height="18" viewBox="0 0 18 18" fill="none" xmlns="http://www.w3.org/2000/svg">
<g clip-path="url(#clip0)">
<path d="M14.25 9C13.8353 9 13.5 9.336 13.5 9.75V15.75C13.5 16.1633 13.164 16.5 12.75 16.5H2.25C1.836 16.5 1.5 16.1633 1.5 15.75V5.25C1.5 4.83675 1.836 4.5 2.25 4.5H8.25C8.66475 4.5 9 4.164 9 3.75C9 3.336 8.66475 3 8.25 3H2.25C1.0095 3 0 4.0095 0 5.25V15.75C0 16.9905 1.0095 18 2.25 18H12.75C13.9905 18 15 16.9905 15 15.75V9.75C15 9.33525 14.6648 9 14.25 9Z" fill="#1B5060"/>
<path d="M7.03155 8.31681C6.97905 8.36931 6.9438 8.43606 6.9288 8.50806L6.39855 11.1601C6.3738 11.2831 6.4128 11.4098 6.5013 11.4991C6.57255 11.5703 6.66855 11.6086 6.7668 11.6086C6.7908 11.6086 6.81555 11.6063 6.8403 11.6011L9.49155 11.0708C9.56505 11.0558 9.6318 11.0206 9.68355 10.9681L15.6175 5.03406L12.9663 2.38281L7.03155 8.31681Z" fill="#1B5060"/>
<path d="M17.4512 0.548926C16.72 -0.182324 15.5305 -0.182324 14.8 0.548926L13.762 1.58693L16.4132 4.23818L17.4512 3.20018C17.8052 2.84693 18.0002 2.37593 18.0002 1.87493C18.0002 1.37393 17.8052 0.902926 17.4512 0.548926Z" fill="#1B5060"/>
</g>
<defs>
<clipPath id="clip0">
<rect width="18" height="18" fill="white"/>
</clipPath>
</defs>
</svg>
