<svg width="16" height="16" viewBox="0 0 16 16" fill="none" xmlns="http://www.w3.org/2000/svg">
<g clip-path="url(#clip0)">
<path d="M1.92175 8.73779C1.89087 8.48047 1.875 8.22485 1.875 8C1.875 4.64368 4.64368 1.875 8 1.875C9.56555 1.875 11.0312 2.50623 12.1094 3.4906L11.5687 4.04065C11.4469 4.16248 11.4 4.34058 11.4469 4.5094C11.5032 4.6687 11.6344 4.79065 11.8031 4.82812C11.8975 4.84705 14.9973 5.84595 14.7999 5.80627C15.051 5.88989 15.4224 5.62207 15.3531 5.25317C15.3341 5.15869 14.6478 1.71521 14.6875 1.91248C14.65 1.74377 14.5281 1.60315 14.3594 1.55627C14.2001 1.5094 14.0219 1.55627 13.9 1.6781L13.4407 2.12805C12.025 0.806274 10.0812 0 8 0C3.60315 0 0 3.60315 0 8V8.01868C0 8.28296 0.012085 8.48718 0.0261231 8.64343C0.0447998 8.85046 0.197388 9.02002 0.401245 9.06091L1.36426 9.25342C1.67773 9.31616 1.95959 9.05334 1.92175 8.73779Z" fill="white"/>
<path d="M15.6021 6.93849L14.6362 6.74171C14.3224 6.67775 14.0386 6.94081 14.0772 7.25782C14.1106 7.53138 14.1255 7.79738 14.1255 8.00013C14.1255 11.3563 11.3568 14.1251 8.0005 14.1251C6.43495 14.1251 4.96925 13.4939 3.89113 12.5001L4.43178 11.9595C4.5536 11.8377 4.60048 11.6596 4.5536 11.4907C4.49733 11.3313 4.3661 11.2095 4.1974 11.172C4.10304 11.153 1.00319 10.1542 1.20058 10.1939C1.04115 10.1658 0.881729 10.2127 0.778702 10.3251C0.666153 10.4282 0.619278 10.5969 0.647354 10.747C0.666397 10.8413 1.3528 14.2536 1.31313 14.0563C1.35048 14.2251 1.47243 14.3657 1.64113 14.4125C1.83681 14.4616 2.00014 14.4022 2.10048 14.2907L2.55055 13.8407C3.96608 15.1626 5.90993 16.0001 8.0005 16.0001C12.3974 16.0001 16.0005 12.397 16.0005 8.00013V7.97194C16.0005 7.76417 15.9929 7.56019 15.9756 7.35743C15.9578 7.15028 15.8058 6.98011 15.6021 6.93849Z" fill="white"/>
</g>
<defs>
<clipPath id="clip0">
<rect width="16" height="16" fill="white"/>
</clipPath>
</defs>
</svg>
