<svg width="17" height="23" viewBox="0 0 17 23" fill="none" xmlns="http://www.w3.org/2000/svg">
<path d="M0.944345 9.64231C0.63202 9.63296 0.339715 9.79599 0.183362 10.0667C0.113575 10.2355 0.183362 10.4252 0.387193 10.6302C1.2887 11.5317 3.04329 14.5915 3.93012 16.8073C4.47221 18.1628 5.77776 19.5551 6.50766 20.2638C7.08407 20.8298 7.40841 21.6037 7.40784 22.4114V22.5691C7.40784 22.8073 7.6008 23 7.83877 23H14.7332C14.9711 23 15.1641 22.8073 15.1641 22.5691V21.2454C15.1601 20.8942 15.3031 20.5571 15.5588 20.3161C16.8657 19.1221 16.8876 16.9882 16.8876 16.9675V10.1459C16.8991 9.67663 16.5547 9.2743 16.0893 9.21348C15.8395 9.1967 15.5947 9.28803 15.4169 9.46422C15.2547 9.62514 15.1635 9.84442 15.1641 10.073V10.9349C15.1641 11.1729 14.9711 11.3658 14.7332 11.3658C14.4952 11.3658 14.3023 11.1729 14.3023 10.9349V7.91861C14.3023 7.44268 13.9163 7.05676 13.4404 7.05676C12.9645 7.05676 12.5788 7.44268 12.5788 7.91861V10.504C12.5788 10.7419 12.3858 10.9349 12.1478 10.9349C11.9099 10.9349 11.7169 10.7419 11.7169 10.504V6.62602C11.7169 6.14991 11.331 5.76417 10.8551 5.76417C10.3791 5.76417 9.9932 6.14991 9.9932 6.62602V10.504C9.9932 10.7419 9.80043 10.9349 9.56247 10.9349C9.32431 10.9349 9.13154 10.7419 9.13154 10.504V1.45511C9.13154 0.979187 8.74562 0.593262 8.26969 0.593262C7.79377 0.593262 7.40784 0.979187 7.40784 1.45511V11.3658C7.42042 11.9682 7.33596 12.5686 7.15748 13.144C7.01715 13.5658 6.67088 13.8863 6.23977 13.9939C5.81666 14.1007 5.36838 13.984 5.05129 13.684C4.66689 13.3181 4.3252 12.9099 4.03309 12.4668C3.11785 11.0939 1.52991 9.64231 0.944345 9.64231ZM15.1641 13.5203C15.1641 13.2823 15.3571 13.0893 15.595 13.0893C15.833 13.0893 16.0258 13.2823 16.0258 13.5203V16.1058C16.0258 16.3438 15.833 16.5365 15.595 16.5365C15.3571 16.5365 15.1641 16.3438 15.1641 16.1058V13.5203ZM14.8594 18.3865C15.024 18.2387 15.1317 18.0381 15.1641 17.8194C15.174 17.5843 15.37 17.4001 15.6053 17.4045C15.8381 17.4073 16.0254 17.5965 16.0258 17.8293C15.9958 18.2749 15.7966 18.6923 15.4686 18.9957C15.2997 19.1591 15.0308 19.1568 14.8648 18.9905C14.6985 18.8243 14.6962 18.5556 14.8594 18.3865ZM10.8551 21.2765H13.8713C14.1093 21.2765 14.3023 21.4695 14.3023 21.7074C14.3023 21.9454 14.1093 22.1384 13.8713 22.1384H10.8551C10.6171 22.1384 10.4241 21.9454 10.4241 21.7074C10.4241 21.4695 10.6171 21.2765 10.8551 21.2765ZM8.70062 21.2765H9.13154C9.3695 21.2765 9.56247 21.4695 9.56247 21.7074C9.56247 21.9454 9.3695 22.1384 9.13154 22.1384H8.70062C8.46265 22.1384 8.26969 21.9454 8.26969 21.7074C8.26969 21.4695 8.46265 21.2765 8.70062 21.2765Z" fill="#1B5060"/>
</svg>
