<svg width="14" height="14" viewBox="0 0 14 14" fill="none" xmlns="http://www.w3.org/2000/svg">
<path d="M7 0C3.15521 0 0 3.15521 0 7C0 10.8448 3.15521 14 7 14C8.22491 14 9.43092 13.6764 10.4871 13.0639L10.0753 12.3541C9.14413 12.8941 8.08061 13.1797 7 13.1797C3.60745 13.1797 0.820312 10.3925 0.820312 7C0.820312 3.60745 3.60745 0.820312 7 0.820312C10.3925 0.820312 13.1797 3.60745 13.1797 7C13.1797 8.09108 12.8942 9.15652 12.3594 10.0822V9.07812H11.5391V11.5391H14V10.7188H12.933C13.6219 9.61603 14 8.30641 14 7C14 3.15521 10.8448 0 7 0Z" fill="#797979"/>
<path d="M7 2.46094C4.51225 2.46094 2.46094 4.51225 2.46094 7C2.46094 9.48775 4.51225 11.5391 7 11.5391C9.48775 11.5391 11.5391 9.48775 11.5391 7C11.5391 4.51225 9.48775 2.46094 7 2.46094ZM9.87109 7.41016H6.58984V4.10156H7.41016V6.58984H9.87109V7.41016Z" fill="#797979"/>
</svg>
