<svg width="16" height="10" viewBox="0 0 16 10" fill="none" xmlns="http://www.w3.org/2000/svg">
<path d="M1.92175 8.73779C1.89087 8.48047 1.875 8.22485 1.875 8C1.875 4.64368 4.64368 1.875 8 1.875C9.56555 1.875 11.0312 2.50623 12.1094 3.4906L11.5687 4.04065C11.4469 4.16248 11.4 4.34058 11.4469 4.5094C11.5032 4.6687 11.6344 4.79065 11.8031 4.82812C11.8975 4.84705 14.9973 5.84595 14.7999 5.80627C15.051 5.88989 15.4224 5.62207 15.3531 5.25317C15.3341 5.15869 14.6478 1.71521 14.6875 1.91248C14.65 1.74377 14.5281 1.60315 14.3594 1.55627C14.2001 1.5094 14.0219 1.55627 13.9 1.6781L13.4407 2.12805C12.025 0.806274 10.0812 0 8 0C3.60315 0 0 3.60315 0 8V8.01868C0 8.28296 0.012085 8.48718 0.0261231 8.64343C0.0447998 8.85046 0.197388 9.02002 0.401245 9.06091L1.36426 9.25342C1.67773 9.31616 1.95959 9.05334 1.92175 8.73779Z" fill="white"/>
</svg>
