<svg width="14" height="14" viewBox="0 0 14 14" fill="none" xmlns="http://www.w3.org/2000/svg">
<g clip-path="url(#clip0)">
<path d="M6.90024 6.74384C7.82672 6.74384 8.62898 6.41155 9.28448 5.75594C9.93999 5.10044 10.2723 4.2984 10.2723 3.37181C10.2723 2.44555 9.93999 1.6434 9.28438 0.987682C8.62877 0.332289 7.82661 0 6.90024 0C5.97365 0 5.1716 0.332289 4.5161 0.987789C3.8606 1.64329 3.5282 2.44544 3.5282 3.37181C3.5282 4.2984 3.8606 5.10055 4.5162 5.75605C5.17181 6.41144 5.97397 6.74384 6.90024 6.74384Z" fill="white"/>
<path d="M12.652 11.0027C12.6331 10.73 12.5948 10.4324 12.5385 10.1181C12.4817 9.80155 12.4085 9.50226 12.321 9.22872C12.2305 8.94599 12.1074 8.66679 11.9553 8.39923C11.7975 8.12152 11.612 7.8797 11.404 7.68071C11.1864 7.47253 10.92 7.30516 10.612 7.18307C10.305 7.06163 9.9648 7.00011 9.60089 7.00011C9.45798 7.00011 9.31976 7.05875 9.05284 7.23253C8.88857 7.33966 8.69641 7.46356 8.48193 7.6006C8.29854 7.71745 8.05009 7.82693 7.74323 7.92605C7.44383 8.02293 7.13985 8.07206 6.83981 8.07206C6.53978 8.07206 6.2359 8.02293 5.93619 7.92605C5.62964 7.82704 5.3812 7.71756 5.19801 7.60071C4.98557 7.46495 4.7933 7.34105 4.62657 7.23242C4.35997 7.05864 4.22165 7 4.07874 7C3.71472 7 3.37463 7.06163 3.06776 7.18318C2.75993 7.30505 2.49344 7.47243 2.27565 7.68081C2.06769 7.87991 1.88216 8.12162 1.7245 8.39923C1.57251 8.66679 1.44946 8.94588 1.35889 9.22883C1.27141 9.50237 1.19824 9.80155 1.14142 10.1181C1.08513 10.4319 1.04689 10.7296 1.02798 11.0031C1.0094 11.2709 1 11.549 1 11.8298C1 12.5606 1.23232 13.1522 1.69043 13.5885C2.14288 14.0191 2.74156 14.2375 3.46959 14.2375H10.2107C10.9387 14.2375 11.5372 14.0192 11.9897 13.5885C12.448 13.1525 12.6803 12.5608 12.6803 11.8297C12.6802 11.5476 12.6707 11.2693 12.652 11.0027Z" fill="white"/>
</g>
<defs>
<clipPath id="clip0">
<rect width="14" height="14" fill="white"/>
</clipPath>
</defs>
</svg>
