<svg width="20" height="20" viewBox="0 0 20 20" fill="none" xmlns="http://www.w3.org/2000/svg">
<g id="Icon/Outline/film">
<path id="Mask" fill-rule="evenodd" clip-rule="evenodd" d="M15.8333 15.2133C15.8333 15.555 15.555 15.8333 15.2133 15.8333H14.1667V14.1667H15.8333V15.2133ZM4.16667 15.2133V14.1667H5.83333V15.8333H4.78667C4.445 15.8333 4.16667 15.555 4.16667 15.2133ZM4.78667 4.16667H5.83333V5.83333H4.16667V4.78667C4.16667 4.445 4.445 4.16667 4.78667 4.16667ZM15.8333 4.78667V5.83333H14.1667V4.16667H15.2133C15.555 4.16667 15.8333 4.445 15.8333 4.78667ZM14.1667 12.5H15.8333V10.8333H14.1667V12.5ZM14.1667 9.16667H15.8333V7.5H14.1667V9.16667ZM7.5 15.8333H12.5V4.16667H7.5V15.8333ZM4.16667 12.5H5.83333V10.8333H4.16667V12.5ZM4.16667 9.16667H5.83333V7.5H4.16667V9.16667ZM15.2133 2.5H4.78667C3.52583 2.5 2.5 3.52667 2.5 4.78667V15.2133C2.5 16.4742 3.52583 17.5 4.78667 17.5H15.2133C16.4742 17.5 17.5 16.4742 17.5 15.2133V4.78667C17.5 3.52667 16.4742 2.5 15.2133 2.5Z" fill="#231F20"/>
<mask id="mask0" mask-type="alpha" maskUnits="userSpaceOnUse" x="2" y="2" width="16" height="16">
<path id="Mask_2" fill-rule="evenodd" clip-rule="evenodd" d="M15.8333 15.2133C15.8333 15.555 15.555 15.8333 15.2133 15.8333H14.1667V14.1667H15.8333V15.2133ZM4.16667 15.2133V14.1667H5.83333V15.8333H4.78667C4.445 15.8333 4.16667 15.555 4.16667 15.2133ZM4.78667 4.16667H5.83333V5.83333H4.16667V4.78667C4.16667 4.445 4.445 4.16667 4.78667 4.16667ZM15.8333 4.78667V5.83333H14.1667V4.16667H15.2133C15.555 4.16667 15.8333 4.445 15.8333 4.78667ZM14.1667 12.5H15.8333V10.8333H14.1667V12.5ZM14.1667 9.16667H15.8333V7.5H14.1667V9.16667ZM7.5 15.8333H12.5V4.16667H7.5V15.8333ZM4.16667 12.5H5.83333V10.8333H4.16667V12.5ZM4.16667 9.16667H5.83333V7.5H4.16667V9.16667ZM15.2133 2.5H4.78667C3.52583 2.5 2.5 3.52667 2.5 4.78667V15.2133C2.5 16.4742 3.52583 17.5 4.78667 17.5H15.2133C16.4742 17.5 17.5 16.4742 17.5 15.2133V4.78667C17.5 3.52667 16.4742 2.5 15.2133 2.5Z" fill="white"/>
</mask>
<g mask="url(#mask0)">
<g id="&#240;&#159;&#142;&#168; Color">
<rect id="Base" width="20" height="20" fill="#00C305"/>
</g>
</g>
</g>
</svg>
