<svg width="16" height="16" viewBox="0 0 16 16" fill="none" xmlns="http://www.w3.org/2000/svg">
<g id="Icon/Outline/all-done">
<path id="Mask" fill-rule="evenodd" clip-rule="evenodd" d="M11.0776 4.14173C10.7882 3.91373 10.3696 3.96573 10.1422 4.25573L5.43889 10.2611L3.18622 7.46306C2.95422 7.17706 2.53555 7.13039 2.24889 7.36173C1.96155 7.59306 1.91689 8.01306 2.14689 8.29906L4.92622 11.7511C5.05355 11.9084 5.24422 11.9997 5.44622 11.9997H5.45089C5.65355 11.9984 5.84555 11.9044 5.97089 11.7437L11.1916 5.07706C11.4189 4.78773 11.3682 4.36839 11.0776 4.14173ZM14.4109 4.14173C14.1209 3.91373 13.7029 3.96573 13.4756 4.25573L8.77222 10.2611L8.36955 9.76173L7.52622 10.8397L8.25955 11.7511C8.38688 11.9084 8.57755 11.9997 8.77955 11.9997H8.78422C8.98688 11.9984 9.17888 11.9044 9.30422 11.7437L14.5249 5.07706C14.7522 4.78773 14.7015 4.36839 14.4109 4.14173ZM6.65336 7.62945L5.80869 8.70679L5.48069 8.29945C5.25002 8.01279 5.29469 7.59279 5.58202 7.36145C5.86936 7.13079 6.28869 7.17679 6.51936 7.46345L6.65336 7.62945Z" fill="#231F20"/>
<mask id="mask0" mask-type="alpha" maskUnits="userSpaceOnUse" x="2" y="3" width="13" height="9">
<path id="Mask_2" fill-rule="evenodd" clip-rule="evenodd" d="M11.0776 4.14173C10.7882 3.91373 10.3696 3.96573 10.1422 4.25573L5.43889 10.2611L3.18622 7.46306C2.95422 7.17706 2.53555 7.13039 2.24889 7.36173C1.96155 7.59306 1.91689 8.01306 2.14689 8.29906L4.92622 11.7511C5.05355 11.9084 5.24422 11.9997 5.44622 11.9997H5.45089C5.65355 11.9984 5.84555 11.9044 5.97089 11.7437L11.1916 5.07706C11.4189 4.78773 11.3682 4.36839 11.0776 4.14173ZM14.4109 4.14173C14.1209 3.91373 13.7029 3.96573 13.4756 4.25573L8.77222 10.2611L8.36955 9.76173L7.52622 10.8397L8.25955 11.7511C8.38688 11.9084 8.57755 11.9997 8.77955 11.9997H8.78422C8.98688 11.9984 9.17888 11.9044 9.30422 11.7437L14.5249 5.07706C14.7522 4.78773 14.7015 4.36839 14.4109 4.14173ZM6.65336 7.62945L5.80869 8.70679L5.48069 8.29945C5.25002 8.01279 5.29469 7.59279 5.58202 7.36145C5.86936 7.13079 6.28869 7.17679 6.51936 7.46345L6.65336 7.62945Z" fill="white"/>
</mask>
<g mask="url(#mask0)">
<g id="&#240;&#159;&#142;&#168; Color">
<rect id="Base" width="16" height="16" fill="#1B86EC"/>
</g>
</g>
</g>
</svg>
