<svg width="32" height="32" viewBox="0 0 32 32" fill="none" xmlns="http://www.w3.org/2000/svg">
<path d="M15.9997 29.3335C17.4663 29.3335 18.6663 28.1335 18.6663 26.6668H13.333C13.333 27.3741 13.614 28.0524 14.1141 28.5524C14.6142 29.0525 15.2924 29.3335 15.9997 29.3335ZM23.9997 21.3335V14.6668C23.9997 10.5735 21.813 7.14683 17.9997 6.24016V5.3335C17.9997 4.22683 17.1063 3.3335 15.9997 3.3335C14.893 3.3335 13.9997 4.22683 13.9997 5.3335V6.24016C10.173 7.14683 7.99967 10.5602 7.99967 14.6668V21.3335L5.33301 24.0002V25.3335H26.6663V24.0002L23.9997 21.3335Z" fill="#828282"/>
</svg>
